<svg width="336" height="336" viewBox="0 0 336 336" fill="none" xmlns="http://www.w3.org/2000/svg">
<mask id="mask0_1201_311" style="mask-type:alpha" maskUnits="userSpaceOnUse" x="0" y="0" width="336" height="336">
<rect width="336" height="336" fill="url(#paint0_radial_1201_311)"/>
</mask>
<g mask="url(#mask0_1201_311)">
<circle cx="168" cy="168" r="33.25" stroke="#EBEBEB" stroke-width="0.7"/>
<circle cx="168" cy="168" r="55.65" stroke="#EBEBEB" stroke-width="0.7"/>
<circle cx="168" cy="168" r="78.05" stroke="#EBEBEB" stroke-width="0.7"/>
<circle cx="168" cy="168" r="100.45" stroke="#EBEBEB" stroke-width="0.7"/>
<circle cx="168" cy="168" r="100.45" stroke="#EBEBEB" stroke-width="0.7"/>
<circle cx="168" cy="168" r="122.85" stroke="#EBEBEB" stroke-width="0.7"/>
<circle cx="168" cy="168" r="145.25" stroke="#EBEBEB" stroke-width="0.7"/>
<circle cx="168" cy="168" r="167.65" stroke="#EBEBEB" stroke-width="0.7"/>
</g>
<rect x="89.5628" y="89.5625" width="156.875" height="156.875" rx="78.4374" fill="url(#paint1_linear_1201_311)"/>
<rect x="89.5628" y="89.5625" width="156.875" height="156.875" rx="78.4374" stroke="#F4F4F4" stroke-width="1.14507"/>
<path fill-rule="evenodd" clip-rule="evenodd" d="M160.662 148.087C162.198 147.492 163.81 147.114 165.45 146.963C165.566 146.953 165.678 146.92 165.781 146.866C165.884 146.813 165.975 146.739 166.05 146.649C166.124 146.56 166.179 146.457 166.213 146.346C166.247 146.235 166.259 146.118 166.247 146.003C166.236 145.887 166.202 145.775 166.146 145.673C166.091 145.571 166.016 145.481 165.926 145.408C165.836 145.335 165.732 145.28 165.62 145.248C165.509 145.215 165.392 145.205 165.277 145.218C163.474 145.385 161.703 145.802 160.015 146.458C159.799 146.544 159.626 146.712 159.534 146.925C159.442 147.139 159.438 147.38 159.524 147.596C159.61 147.812 159.778 147.985 159.991 148.077C160.205 148.169 160.446 148.173 160.662 148.087ZM169.746 146.93C171.819 147.086 173.716 147.119 175.448 147.045C175.565 147.043 175.679 147.017 175.786 146.969C175.892 146.922 175.988 146.854 176.067 146.769C176.147 146.684 176.209 146.584 176.249 146.475C176.29 146.365 176.309 146.249 176.304 146.133C176.299 146.017 176.271 145.902 176.222 145.797C176.172 145.692 176.102 145.597 176.016 145.519C175.93 145.441 175.829 145.381 175.719 145.342C175.609 145.303 175.492 145.287 175.376 145.294C173.705 145.364 171.876 145.331 169.878 145.18C169.652 145.174 169.433 145.255 169.266 145.406C169.098 145.557 168.995 145.767 168.978 145.992C168.962 146.217 169.032 146.44 169.175 146.614C169.318 146.789 169.522 146.902 169.746 146.93ZM180.182 146.526C182.227 146.142 183.961 145.574 185.418 144.875C185.522 144.825 185.615 144.755 185.692 144.669C185.768 144.583 185.828 144.483 185.866 144.375C185.904 144.266 185.92 144.151 185.914 144.036C185.908 143.921 185.879 143.808 185.829 143.704C185.779 143.6 185.709 143.507 185.624 143.431C185.538 143.354 185.438 143.295 185.329 143.256C185.22 143.218 185.105 143.202 184.99 143.208C184.875 143.214 184.763 143.243 184.659 143.293C183.323 143.935 181.732 144.452 179.858 144.805C179.741 144.822 179.629 144.863 179.529 144.924C179.428 144.986 179.341 145.067 179.273 145.164C179.204 145.26 179.156 145.369 179.131 145.484C179.106 145.599 179.104 145.718 179.126 145.834C179.148 145.95 179.193 146.06 179.258 146.158C179.323 146.256 179.408 146.34 179.507 146.405C179.605 146.47 179.716 146.514 179.832 146.535C179.948 146.555 180.067 146.553 180.182 146.526ZM188.991 142.439C190.562 140.923 191.485 139.176 191.9 137.4C191.953 137.174 191.914 136.935 191.791 136.738C191.669 136.54 191.473 136.399 191.246 136.346C191.02 136.293 190.781 136.332 190.584 136.455C190.386 136.578 190.245 136.774 190.192 137C189.849 138.475 189.077 139.92 187.774 141.177C187.692 141.257 187.625 141.352 187.579 141.458C187.533 141.563 187.508 141.677 187.506 141.792C187.504 141.907 187.525 142.021 187.567 142.129C187.609 142.236 187.672 142.334 187.752 142.416C187.832 142.499 187.927 142.566 188.033 142.612C188.138 142.658 188.252 142.682 188.367 142.685C188.482 142.687 188.596 142.666 188.703 142.624C188.811 142.582 188.908 142.519 188.991 142.439ZM191.483 131.363C190.787 129.515 189.607 127.946 188.169 126.953C187.977 126.821 187.741 126.771 187.513 126.813C187.284 126.856 187.081 126.987 186.949 127.179C186.818 127.37 186.767 127.606 186.81 127.835C186.852 128.064 186.983 128.266 187.175 128.398C188.337 129.199 189.279 130.483 189.842 131.98C189.924 132.198 190.088 132.374 190.3 132.47C190.512 132.566 190.753 132.574 190.971 132.492C191.188 132.41 191.365 132.245 191.461 132.034C191.557 131.822 191.565 131.581 191.483 131.363ZM168.64 126.95C169.602 122.433 173.439 120.236 176.206 120.22C177.114 120.215 177.901 120.429 178.31 120.976C178.552 121.3 178.625 121.735 178.532 122.268C178.493 122.498 178.546 122.733 178.68 122.923C178.814 123.113 179.018 123.242 179.248 123.282C179.477 123.321 179.713 123.268 179.903 123.134C180.093 123 180.222 122.796 180.261 122.566C180.451 121.47 180.212 120.592 179.714 119.927C179.018 118.993 177.742 118.458 176.197 118.467C172.829 118.486 168.096 121.086 166.925 126.585C166.899 126.698 166.896 126.816 166.916 126.93C166.935 127.045 166.978 127.155 167.04 127.253C167.103 127.351 167.184 127.435 167.28 127.502C167.375 127.568 167.483 127.614 167.597 127.639C167.711 127.663 167.828 127.664 167.942 127.642C168.057 127.621 168.166 127.577 168.263 127.513C168.36 127.448 168.443 127.366 168.508 127.269C168.572 127.172 168.617 127.064 168.64 126.95Z" fill="#D4D4D8"/>
<path fill-rule="evenodd" clip-rule="evenodd" d="M166.932 126.953C168.119 132.424 172.834 135.012 176.193 135.033C177.857 135.041 179.206 134.423 179.865 133.351C180.263 132.706 180.437 131.884 180.251 130.879C180.023 129.643 179.209 128.059 177.507 126.18C177.43 126.091 177.337 126.018 177.232 125.966C177.128 125.914 177.013 125.884 176.897 125.876C176.78 125.869 176.663 125.885 176.552 125.924C176.442 125.962 176.34 126.023 176.253 126.101C176.167 126.18 176.096 126.275 176.047 126.381C175.998 126.487 175.97 126.602 175.966 126.719C175.961 126.836 175.981 126.953 176.022 127.062C176.064 127.172 176.127 127.272 176.207 127.356C177.393 128.666 178.096 129.783 178.404 130.721C178.638 131.437 178.632 132.01 178.373 132.432C178.138 132.813 177.717 133.043 177.21 133.169C176.574 133.327 175.811 133.314 175.006 133.144C172.434 132.601 169.485 130.449 168.647 126.581C168.588 126.364 168.448 126.177 168.255 126.06C168.063 125.943 167.833 125.905 167.613 125.952C167.393 126 167.199 126.13 167.072 126.317C166.946 126.503 166.896 126.731 166.932 126.953Z" fill="#D4D4D8"/>
<path fill-rule="evenodd" clip-rule="evenodd" d="M167.551 128.521H179.29C179.755 128.521 180.201 128.336 180.53 128.007C180.859 127.678 181.044 127.232 181.044 126.767C181.044 126.302 180.859 125.856 180.53 125.527C180.201 125.199 179.755 125.014 179.29 125.014H167.551C167.086 125.014 166.64 125.199 166.311 125.527C165.983 125.856 165.798 126.302 165.798 126.767C165.798 127.232 165.983 127.678 166.311 128.007C166.64 128.336 167.086 128.521 167.551 128.521Z" fill="#71717A"/>
<path fill-rule="evenodd" clip-rule="evenodd" d="M132.056 196.966V206.801C132.056 208.736 133.325 210.442 135.18 210.998L166.741 220.467C167.562 220.714 168.438 220.714 169.259 220.467L200.82 210.998C201.723 210.728 202.515 210.173 203.078 209.417C203.641 208.661 203.945 207.743 203.945 206.801V192.779C203.945 192.546 203.852 192.323 203.688 192.159C203.523 191.994 203.3 191.902 203.068 191.902C202.835 191.902 202.612 191.994 202.448 192.159C202.284 192.323 202.191 192.546 202.191 192.779V206.801C202.191 207.961 201.429 208.985 200.317 209.32L168.756 218.789C168.263 218.936 167.737 218.936 167.244 218.789L135.683 209.32C135.142 209.157 134.667 208.824 134.33 208.37C133.992 207.917 133.81 207.366 133.809 206.801V196.966C133.809 196.733 133.717 196.51 133.552 196.346C133.388 196.182 133.165 196.089 132.932 196.089C132.7 196.089 132.477 196.182 132.312 196.346C132.148 196.51 132.056 196.733 132.056 196.966Z" fill="#71717A"/>
<path fill-rule="evenodd" clip-rule="evenodd" d="M130.015 177.1L123.306 187.046C123.078 187.383 122.931 187.769 122.878 188.173C122.824 188.577 122.865 188.988 122.998 189.373C123.131 189.758 123.351 190.107 123.642 190.393C123.933 190.678 124.286 190.892 124.674 191.017L156.226 201.269C156.769 201.445 157.354 201.441 157.893 201.256C158.433 201.071 158.897 200.715 159.217 200.243L168.726 186.213C168.802 186.1 168.851 185.971 168.869 185.837C168.887 185.702 168.873 185.565 168.829 185.436C168.785 185.308 168.711 185.191 168.614 185.096C168.517 185.001 168.4 184.929 168.27 184.887L133.202 173.508C132.985 173.45 132.754 173.478 132.556 173.585C132.359 173.693 132.21 173.872 132.141 174.086C132.072 174.3 132.087 174.533 132.184 174.736C132.281 174.938 132.452 175.096 132.662 175.177L166.62 186.195L157.766 199.26C157.659 199.417 157.504 199.536 157.324 199.598C157.144 199.659 156.949 199.661 156.768 199.602L125.216 189.35C125.087 189.308 124.969 189.236 124.872 189.141C124.775 189.046 124.702 188.93 124.658 188.801C124.614 188.673 124.6 188.536 124.618 188.402C124.635 188.267 124.684 188.138 124.76 188.026L131.468 178.081C131.535 177.985 131.582 177.878 131.607 177.764C131.631 177.65 131.633 177.533 131.612 177.418C131.59 177.304 131.547 177.195 131.483 177.097C131.419 177 131.336 176.917 131.24 176.852C131.143 176.786 131.035 176.741 130.921 176.719C130.807 176.696 130.689 176.696 130.575 176.719C130.461 176.742 130.353 176.788 130.257 176.854C130.16 176.919 130.078 177.003 130.015 177.1Z" fill="#71717A"/>
<path fill-rule="evenodd" clip-rule="evenodd" d="M197.81 175.126L167.73 184.887C167.618 184.92 167.513 184.975 167.423 185.049C167.332 185.123 167.257 185.215 167.202 185.318C167.148 185.422 167.114 185.536 167.104 185.652C167.094 185.769 167.108 185.886 167.144 185.998C167.18 186.109 167.238 186.212 167.314 186.301C167.391 186.39 167.485 186.462 167.59 186.514C167.695 186.566 167.809 186.596 167.926 186.603C168.043 186.61 168.16 186.593 168.27 186.554L198.35 176.795C198.571 176.723 198.755 176.567 198.861 176.359C198.967 176.152 198.986 175.912 198.914 175.69C198.843 175.469 198.686 175.285 198.479 175.179C198.272 175.073 198.031 175.054 197.81 175.126Z" fill="#71717A"/>
<path fill-rule="evenodd" clip-rule="evenodd" d="M169.757 189.876L176.783 200.243C177.44 201.213 178.659 201.63 179.774 201.269L211.326 191.017C211.714 190.892 212.067 190.678 212.358 190.393C212.649 190.107 212.87 189.758 213.002 189.373C213.135 188.988 213.176 188.577 213.123 188.173C213.069 187.769 212.922 187.383 212.694 187.046L203.796 173.851C203.665 173.659 203.463 173.526 203.235 173.482C203.007 173.437 202.77 173.485 202.577 173.615C202.384 173.745 202.252 173.947 202.207 174.175C202.163 174.403 202.211 174.64 202.34 174.833L211.24 188.026C211.316 188.138 211.364 188.267 211.381 188.401C211.398 188.536 211.384 188.672 211.34 188.801C211.296 188.929 211.223 189.045 211.127 189.14C211.03 189.235 210.913 189.307 210.785 189.35L179.232 199.602C179.051 199.661 178.856 199.659 178.676 199.597C178.496 199.536 178.341 199.417 178.235 199.26L171.209 188.892C171.078 188.699 170.877 188.567 170.648 188.523C170.42 188.479 170.184 188.527 169.991 188.658C169.799 188.788 169.666 188.99 169.622 189.218C169.578 189.447 169.627 189.683 169.757 189.876ZM138.529 173.443L168.272 163.761C168.401 163.718 168.518 163.646 168.614 163.55C168.711 163.454 168.784 163.338 168.828 163.209C168.871 163.081 168.885 162.944 168.867 162.809C168.849 162.675 168.8 162.546 168.724 162.433L160.236 149.949C159.916 149.478 159.451 149.124 158.913 148.94C158.374 148.755 157.79 148.751 157.248 148.927L125.694 159.179C125.307 159.305 124.955 159.52 124.665 159.806C124.374 160.091 124.154 160.44 124.022 160.825C123.889 161.21 123.848 161.621 123.901 162.025C123.954 162.428 124.099 162.814 124.327 163.152L132.205 174.833C132.339 175.016 132.539 175.141 132.763 175.18C132.986 175.218 133.216 175.169 133.405 175.042C133.593 174.915 133.725 174.72 133.772 174.498C133.82 174.276 133.78 174.044 133.66 173.851L125.78 162.172C125.704 162.059 125.656 161.931 125.638 161.796C125.62 161.661 125.634 161.524 125.678 161.396C125.722 161.267 125.796 161.151 125.893 161.056C125.989 160.96 126.107 160.889 126.236 160.846L157.79 150.594C157.971 150.536 158.165 150.537 158.345 150.598C158.524 150.66 158.679 150.778 158.786 150.935L166.618 162.454L137.987 171.775C137.769 171.849 137.588 172.006 137.484 172.212C137.38 172.419 137.362 172.657 137.434 172.877C137.505 173.097 137.66 173.279 137.865 173.385C138.07 173.491 138.309 173.512 138.529 173.443Z" fill="#71717A"/>
<path fill-rule="evenodd" clip-rule="evenodd" d="M167.728 163.761L202.796 175.175C202.977 175.235 203.173 175.233 203.353 175.172C203.533 175.11 203.689 174.991 203.795 174.833L211.673 163.152C211.901 162.814 212.046 162.428 212.099 162.025C212.152 161.621 212.111 161.21 211.978 160.825C211.846 160.44 211.626 160.091 211.336 159.806C211.045 159.52 210.693 159.305 210.306 159.179L178.752 148.927C178.21 148.751 177.626 148.755 177.087 148.94C176.549 149.124 176.084 149.478 175.764 149.949L169.631 158.969C169.5 159.161 169.451 159.397 169.494 159.626C169.537 159.854 169.67 160.056 169.862 160.187C170.054 160.318 170.291 160.367 170.519 160.324C170.748 160.28 170.95 160.148 171.081 159.956L177.214 150.935C177.321 150.778 177.476 150.66 177.655 150.598C177.835 150.537 178.03 150.536 178.21 150.594L209.764 160.846C209.893 160.889 210.01 160.961 210.106 161.057C210.202 161.152 210.276 161.268 210.32 161.397C210.364 161.525 210.378 161.661 210.36 161.796C210.343 161.93 210.295 162.059 210.22 162.172L202.71 173.304L168.272 162.093C168.051 162.021 167.81 162.04 167.603 162.145C167.395 162.251 167.238 162.434 167.166 162.655C167.094 162.876 167.113 163.117 167.218 163.324C167.324 163.532 167.507 163.688 167.728 163.761Z" fill="#71717A"/>
<path fill-rule="evenodd" clip-rule="evenodd" d="M194.559 174.339L168 182.955L141.441 174.339L168 165.693L194.559 174.339Z" fill="#D4D4D8"/>
<path fill-rule="evenodd" clip-rule="evenodd" d="M158.381 163.694C157.909 163.029 157.504 162.361 157.164 161.693C157.058 161.486 156.875 161.33 156.654 161.258C156.433 161.187 156.193 161.206 155.986 161.311C155.779 161.417 155.622 161.6 155.55 161.821C155.478 162.042 155.497 162.282 155.602 162.489C155.979 163.231 156.428 163.973 156.952 164.711C157.087 164.9 157.291 165.028 157.521 165.067C157.75 165.106 157.985 165.052 158.175 164.917C158.364 164.782 158.493 164.577 158.531 164.348C158.57 164.119 158.516 163.883 158.381 163.694ZM155.949 158.046C155.792 157.082 155.783 156.1 155.923 155.134C155.956 154.904 155.897 154.669 155.758 154.483C155.619 154.296 155.412 154.172 155.182 154.139C154.952 154.105 154.717 154.164 154.531 154.303C154.344 154.442 154.221 154.649 154.187 154.879C154.023 156.021 154.033 157.18 154.217 158.318C154.253 158.548 154.378 158.754 154.566 158.891C154.754 159.027 154.989 159.084 155.219 159.048C155.448 159.012 155.654 158.886 155.791 158.698C155.928 158.51 155.985 158.276 155.949 158.046Z" fill="#D4D4D8"/>
<path fill-rule="evenodd" clip-rule="evenodd" d="M156.637 151.728C156.977 150.987 157.353 150.302 157.761 149.674C157.887 149.479 157.931 149.242 157.882 149.015C157.834 148.787 157.697 148.589 157.502 148.462C157.308 148.336 157.071 148.292 156.843 148.34C156.616 148.388 156.417 148.524 156.29 148.719C155.837 149.416 155.419 150.176 155.042 150.999C154.945 151.211 154.936 151.452 155.018 151.67C155.099 151.888 155.263 152.064 155.475 152.161C155.686 152.258 155.928 152.266 156.146 152.185C156.364 152.104 156.54 151.94 156.637 151.728Z" fill="#D4D4D8"/>
<defs>
<radialGradient id="paint0_radial_1201_311" cx="0" cy="0" r="1" gradientUnits="userSpaceOnUse" gradientTransform="translate(168 168) rotate(90) scale(168 168)">
<stop/>
<stop offset="1" stop-opacity="0"/>
</radialGradient>
<linearGradient id="paint1_linear_1201_311" x1="168" y1="88.99" x2="168" y2="247.01" gradientUnits="userSpaceOnUse">
<stop stop-color="white"/>
<stop offset="1" stop-color="white"/>
</linearGradient>
</defs>
</svg>
